<mxfile host="app.diagrams.net" agent="Mozilla/5.0 (Macintosh; Intel Mac OS X 10_15_7) AppleWebKit/537.36 (KHTML, like Gecko) Chrome/134.0.0.0 Safari/537.36" version="26.2.15">
  <diagram name="Page-1" id="TB_9cFE0EKYuABBTSTt4">
    <mxGraphModel dx="1203" dy="1933" grid="1" gridSize="10" guides="1" tooltips="1" connect="1" arrows="1" fold="1" page="1" pageScale="1" pageWidth="827" pageHeight="1169" math="0" shadow="0">
      <root>
        <mxCell id="0" />
        <mxCell id="1" parent="0" />
        <mxCell id="I7guThDB0Dkwod5BumiW-1" value="Cross-Functional Flowchart" style="shape=table;childLayout=tableLayout;startSize=40;collapsible=0;recursiveResize=0;expand=0;gradientColor=none;" vertex="1" parent="1">
          <mxGeometry x="90" y="-20" width="640" height="640" as="geometry" />
        </mxCell>
        <mxCell id="I7guThDB0Dkwod5BumiW-2" value="" style="shape=tableRow;horizontal=0;swimlaneHead=0;swimlaneBody=0;top=0;left=0;strokeColor=inherit;bottom=0;right=0;dropTarget=0;fontStyle=0;fillColor=none;points=[[0,0.5],[1,0.5]];portConstraint=eastwest;startSize=40;collapsible=0;recursiveResize=0;expand=0;" vertex="1" parent="I7guThDB0Dkwod5BumiW-1">
          <mxGeometry y="40" width="640" height="120" as="geometry" />
        </mxCell>
        <mxCell id="I7guThDB0Dkwod5BumiW-3" value="" style="swimlane;swimlaneHead=0;swimlaneBody=0;fontStyle=0;strokeColor=inherit;connectable=0;fillColor=none;startSize=40;collapsible=0;recursiveResize=0;expand=0;" vertex="1" parent="I7guThDB0Dkwod5BumiW-2">
          <mxGeometry x="40" width="120" height="120" as="geometry">
            <mxRectangle width="120" height="120" as="alternateBounds" />
          </mxGeometry>
        </mxCell>
        <mxCell id="I7guThDB0Dkwod5BumiW-4" value="" style="swimlane;swimlaneHead=0;swimlaneBody=0;fontStyle=0;strokeColor=inherit;connectable=0;fillColor=none;startSize=40;collapsible=0;recursiveResize=0;expand=0;" vertex="1" parent="I7guThDB0Dkwod5BumiW-2">
          <mxGeometry x="160" width="120" height="120" as="geometry">
            <mxRectangle width="120" height="120" as="alternateBounds" />
          </mxGeometry>
        </mxCell>
        <mxCell id="I7guThDB0Dkwod5BumiW-5" value="" style="swimlane;swimlaneHead=0;swimlaneBody=0;fontStyle=0;strokeColor=inherit;connectable=0;fillColor=none;startSize=40;collapsible=0;recursiveResize=0;expand=0;" vertex="1" parent="I7guThDB0Dkwod5BumiW-2">
          <mxGeometry x="280" width="120" height="120" as="geometry">
            <mxRectangle width="120" height="120" as="alternateBounds" />
          </mxGeometry>
        </mxCell>
        <mxCell id="I7guThDB0Dkwod5BumiW-6" value="" style="swimlane;swimlaneHead=0;swimlaneBody=0;fontStyle=0;strokeColor=inherit;connectable=0;fillColor=none;startSize=40;collapsible=0;recursiveResize=0;expand=0;" vertex="1" parent="I7guThDB0Dkwod5BumiW-2">
          <mxGeometry x="400" width="120" height="120" as="geometry">
            <mxRectangle width="120" height="120" as="alternateBounds" />
          </mxGeometry>
        </mxCell>
        <mxCell id="I7guThDB0Dkwod5BumiW-7" value="" style="swimlane;swimlaneHead=0;swimlaneBody=0;fontStyle=0;strokeColor=inherit;connectable=0;fillColor=none;startSize=40;collapsible=0;recursiveResize=0;expand=0;" vertex="1" parent="I7guThDB0Dkwod5BumiW-2">
          <mxGeometry x="520" width="120" height="120" as="geometry">
            <mxRectangle width="120" height="120" as="alternateBounds" />
          </mxGeometry>
        </mxCell>
        <mxCell id="I7guThDB0Dkwod5BumiW-8" value="" style="shape=tableRow;horizontal=0;swimlaneHead=0;swimlaneBody=0;top=0;left=0;strokeColor=inherit;bottom=0;right=0;dropTarget=0;fontStyle=0;fillColor=none;points=[[0,0.5],[1,0.5]];portConstraint=eastwest;startSize=40;collapsible=0;recursiveResize=0;expand=0;" vertex="1" parent="I7guThDB0Dkwod5BumiW-1">
          <mxGeometry y="160" width="640" height="120" as="geometry" />
        </mxCell>
        <mxCell id="I7guThDB0Dkwod5BumiW-9" value="" style="swimlane;swimlaneHead=0;swimlaneBody=0;fontStyle=0;connectable=0;strokeColor=inherit;fillColor=none;startSize=0;collapsible=0;recursiveResize=0;expand=0;" vertex="1" parent="I7guThDB0Dkwod5BumiW-8">
          <mxGeometry x="40" width="120" height="120" as="geometry">
            <mxRectangle width="120" height="120" as="alternateBounds" />
          </mxGeometry>
        </mxCell>
        <mxCell id="I7guThDB0Dkwod5BumiW-10" value="" style="swimlane;swimlaneHead=0;swimlaneBody=0;fontStyle=0;connectable=0;strokeColor=inherit;fillColor=none;startSize=0;collapsible=0;recursiveResize=0;expand=0;" vertex="1" parent="I7guThDB0Dkwod5BumiW-8">
          <mxGeometry x="160" width="120" height="120" as="geometry">
            <mxRectangle width="120" height="120" as="alternateBounds" />
          </mxGeometry>
        </mxCell>
        <mxCell id="I7guThDB0Dkwod5BumiW-11" value="" style="swimlane;swimlaneHead=0;swimlaneBody=0;fontStyle=0;connectable=0;strokeColor=inherit;fillColor=none;startSize=0;collapsible=0;recursiveResize=0;expand=0;" vertex="1" parent="I7guThDB0Dkwod5BumiW-8">
          <mxGeometry x="280" width="120" height="120" as="geometry">
            <mxRectangle width="120" height="120" as="alternateBounds" />
          </mxGeometry>
        </mxCell>
        <mxCell id="I7guThDB0Dkwod5BumiW-12" value="" style="swimlane;swimlaneHead=0;swimlaneBody=0;fontStyle=0;connectable=0;strokeColor=inherit;fillColor=none;startSize=0;collapsible=0;recursiveResize=0;expand=0;" vertex="1" parent="I7guThDB0Dkwod5BumiW-8">
          <mxGeometry x="400" width="120" height="120" as="geometry">
            <mxRectangle width="120" height="120" as="alternateBounds" />
          </mxGeometry>
        </mxCell>
        <mxCell id="I7guThDB0Dkwod5BumiW-13" value="" style="swimlane;swimlaneHead=0;swimlaneBody=0;fontStyle=0;connectable=0;strokeColor=inherit;fillColor=none;startSize=0;collapsible=0;recursiveResize=0;expand=0;" vertex="1" parent="I7guThDB0Dkwod5BumiW-8">
          <mxGeometry x="520" width="120" height="120" as="geometry">
            <mxRectangle width="120" height="120" as="alternateBounds" />
          </mxGeometry>
        </mxCell>
        <mxCell id="I7guThDB0Dkwod5BumiW-14" value="" style="shape=tableRow;horizontal=0;swimlaneHead=0;swimlaneBody=0;top=0;left=0;strokeColor=inherit;bottom=0;right=0;dropTarget=0;fontStyle=0;fillColor=none;points=[[0,0.5],[1,0.5]];portConstraint=eastwest;startSize=40;collapsible=0;recursiveResize=0;expand=0;" vertex="1" parent="I7guThDB0Dkwod5BumiW-1">
          <mxGeometry y="280" width="640" height="120" as="geometry" />
        </mxCell>
        <mxCell id="I7guThDB0Dkwod5BumiW-15" value="" style="swimlane;swimlaneHead=0;swimlaneBody=0;fontStyle=0;connectable=0;strokeColor=inherit;fillColor=none;startSize=0;collapsible=0;recursiveResize=0;expand=0;" vertex="1" parent="I7guThDB0Dkwod5BumiW-14">
          <mxGeometry x="40" width="120" height="120" as="geometry">
            <mxRectangle width="120" height="120" as="alternateBounds" />
          </mxGeometry>
        </mxCell>
        <mxCell id="I7guThDB0Dkwod5BumiW-16" value="" style="swimlane;swimlaneHead=0;swimlaneBody=0;fontStyle=0;connectable=0;strokeColor=inherit;fillColor=none;startSize=0;collapsible=0;recursiveResize=0;expand=0;" vertex="1" parent="I7guThDB0Dkwod5BumiW-14">
          <mxGeometry x="160" width="120" height="120" as="geometry">
            <mxRectangle width="120" height="120" as="alternateBounds" />
          </mxGeometry>
        </mxCell>
        <mxCell id="I7guThDB0Dkwod5BumiW-17" value="" style="swimlane;swimlaneHead=0;swimlaneBody=0;fontStyle=0;connectable=0;strokeColor=inherit;fillColor=none;startSize=0;collapsible=0;recursiveResize=0;expand=0;" vertex="1" parent="I7guThDB0Dkwod5BumiW-14">
          <mxGeometry x="280" width="120" height="120" as="geometry">
            <mxRectangle width="120" height="120" as="alternateBounds" />
          </mxGeometry>
        </mxCell>
        <mxCell id="I7guThDB0Dkwod5BumiW-18" value="" style="swimlane;swimlaneHead=0;swimlaneBody=0;fontStyle=0;connectable=0;strokeColor=inherit;fillColor=none;startSize=0;collapsible=0;recursiveResize=0;expand=0;" vertex="1" parent="I7guThDB0Dkwod5BumiW-14">
          <mxGeometry x="400" width="120" height="120" as="geometry">
            <mxRectangle width="120" height="120" as="alternateBounds" />
          </mxGeometry>
        </mxCell>
        <mxCell id="I7guThDB0Dkwod5BumiW-19" value="" style="swimlane;swimlaneHead=0;swimlaneBody=0;fontStyle=0;connectable=0;strokeColor=inherit;fillColor=none;startSize=0;collapsible=0;recursiveResize=0;expand=0;" vertex="1" parent="I7guThDB0Dkwod5BumiW-14">
          <mxGeometry x="520" width="120" height="120" as="geometry">
            <mxRectangle width="120" height="120" as="alternateBounds" />
          </mxGeometry>
        </mxCell>
        <mxCell id="I7guThDB0Dkwod5BumiW-20" value="" style="shape=tableRow;horizontal=0;swimlaneHead=0;swimlaneBody=0;top=0;left=0;strokeColor=inherit;bottom=0;right=0;dropTarget=0;fontStyle=0;fillColor=none;points=[[0,0.5],[1,0.5]];portConstraint=eastwest;startSize=40;collapsible=0;recursiveResize=0;expand=0;" vertex="1" parent="I7guThDB0Dkwod5BumiW-1">
          <mxGeometry y="400" width="640" height="120" as="geometry" />
        </mxCell>
        <mxCell id="I7guThDB0Dkwod5BumiW-21" value="" style="swimlane;swimlaneHead=0;swimlaneBody=0;fontStyle=0;connectable=0;strokeColor=inherit;fillColor=none;startSize=0;collapsible=0;recursiveResize=0;expand=0;" vertex="1" parent="I7guThDB0Dkwod5BumiW-20">
          <mxGeometry x="40" width="120" height="120" as="geometry">
            <mxRectangle width="120" height="120" as="alternateBounds" />
          </mxGeometry>
        </mxCell>
        <mxCell id="I7guThDB0Dkwod5BumiW-22" value="" style="swimlane;swimlaneHead=0;swimlaneBody=0;fontStyle=0;connectable=0;strokeColor=inherit;fillColor=none;startSize=0;collapsible=0;recursiveResize=0;expand=0;" vertex="1" parent="I7guThDB0Dkwod5BumiW-20">
          <mxGeometry x="160" width="120" height="120" as="geometry">
            <mxRectangle width="120" height="120" as="alternateBounds" />
          </mxGeometry>
        </mxCell>
        <mxCell id="I7guThDB0Dkwod5BumiW-23" value="" style="swimlane;swimlaneHead=0;swimlaneBody=0;fontStyle=0;connectable=0;strokeColor=inherit;fillColor=none;startSize=0;collapsible=0;recursiveResize=0;expand=0;" vertex="1" parent="I7guThDB0Dkwod5BumiW-20">
          <mxGeometry x="280" width="120" height="120" as="geometry">
            <mxRectangle width="120" height="120" as="alternateBounds" />
          </mxGeometry>
        </mxCell>
        <mxCell id="I7guThDB0Dkwod5BumiW-24" value="" style="swimlane;swimlaneHead=0;swimlaneBody=0;fontStyle=0;connectable=0;strokeColor=inherit;fillColor=none;startSize=0;collapsible=0;recursiveResize=0;expand=0;" vertex="1" parent="I7guThDB0Dkwod5BumiW-20">
          <mxGeometry x="400" width="120" height="120" as="geometry">
            <mxRectangle width="120" height="120" as="alternateBounds" />
          </mxGeometry>
        </mxCell>
        <mxCell id="I7guThDB0Dkwod5BumiW-25" value="" style="swimlane;swimlaneHead=0;swimlaneBody=0;fontStyle=0;connectable=0;strokeColor=inherit;fillColor=none;startSize=0;collapsible=0;recursiveResize=0;expand=0;" vertex="1" parent="I7guThDB0Dkwod5BumiW-20">
          <mxGeometry x="520" width="120" height="120" as="geometry">
            <mxRectangle width="120" height="120" as="alternateBounds" />
          </mxGeometry>
        </mxCell>
        <mxCell id="I7guThDB0Dkwod5BumiW-26" value="" style="shape=tableRow;horizontal=0;swimlaneHead=0;swimlaneBody=0;top=0;left=0;strokeColor=inherit;bottom=0;right=0;dropTarget=0;fontStyle=0;fillColor=none;points=[[0,0.5],[1,0.5]];portConstraint=eastwest;startSize=40;collapsible=0;recursiveResize=0;expand=0;" vertex="1" parent="I7guThDB0Dkwod5BumiW-1">
          <mxGeometry y="520" width="640" height="120" as="geometry" />
        </mxCell>
        <mxCell id="I7guThDB0Dkwod5BumiW-27" value="" style="swimlane;swimlaneHead=0;swimlaneBody=0;fontStyle=0;connectable=0;strokeColor=inherit;fillColor=none;startSize=0;collapsible=0;recursiveResize=0;expand=0;" vertex="1" parent="I7guThDB0Dkwod5BumiW-26">
          <mxGeometry x="40" width="120" height="120" as="geometry">
            <mxRectangle width="120" height="120" as="alternateBounds" />
          </mxGeometry>
        </mxCell>
        <mxCell id="I7guThDB0Dkwod5BumiW-28" value="" style="swimlane;swimlaneHead=0;swimlaneBody=0;fontStyle=0;connectable=0;strokeColor=inherit;fillColor=none;startSize=0;collapsible=0;recursiveResize=0;expand=0;" vertex="1" parent="I7guThDB0Dkwod5BumiW-26">
          <mxGeometry x="160" width="120" height="120" as="geometry">
            <mxRectangle width="120" height="120" as="alternateBounds" />
          </mxGeometry>
        </mxCell>
        <mxCell id="I7guThDB0Dkwod5BumiW-29" value="" style="swimlane;swimlaneHead=0;swimlaneBody=0;fontStyle=0;connectable=0;strokeColor=inherit;fillColor=none;startSize=0;collapsible=0;recursiveResize=0;expand=0;" vertex="1" parent="I7guThDB0Dkwod5BumiW-26">
          <mxGeometry x="280" width="120" height="120" as="geometry">
            <mxRectangle width="120" height="120" as="alternateBounds" />
          </mxGeometry>
        </mxCell>
        <mxCell id="I7guThDB0Dkwod5BumiW-30" value="" style="swimlane;swimlaneHead=0;swimlaneBody=0;fontStyle=0;connectable=0;strokeColor=inherit;fillColor=none;startSize=0;collapsible=0;recursiveResize=0;expand=0;" vertex="1" parent="I7guThDB0Dkwod5BumiW-26">
          <mxGeometry x="400" width="120" height="120" as="geometry">
            <mxRectangle width="120" height="120" as="alternateBounds" />
          </mxGeometry>
        </mxCell>
        <mxCell id="I7guThDB0Dkwod5BumiW-31" value="" style="swimlane;swimlaneHead=0;swimlaneBody=0;fontStyle=0;connectable=0;strokeColor=inherit;fillColor=none;startSize=0;collapsible=0;recursiveResize=0;expand=0;" vertex="1" parent="I7guThDB0Dkwod5BumiW-26">
          <mxGeometry x="520" width="120" height="120" as="geometry">
            <mxRectangle width="120" height="120" as="alternateBounds" />
          </mxGeometry>
        </mxCell>
        <mxCell id="I7guThDB0Dkwod5BumiW-32" value="" style="shape=table;startSize=0;container=1;collapsible=0;childLayout=tableLayout;dashed=1;" vertex="1" parent="1">
          <mxGeometry x="920" width="720" height="398" as="geometry" />
        </mxCell>
        <mxCell id="I7guThDB0Dkwod5BumiW-33" value="" style="shape=tableRow;horizontal=0;startSize=0;swimlaneHead=0;swimlaneBody=0;strokeColor=inherit;top=0;left=0;bottom=0;right=0;collapsible=0;dropTarget=0;fillColor=none;points=[[0,0.5],[1,0.5]];portConstraint=eastwest;" vertex="1" parent="I7guThDB0Dkwod5BumiW-32">
          <mxGeometry width="720" height="20" as="geometry" />
        </mxCell>
        <mxCell id="I7guThDB0Dkwod5BumiW-34" value="" style="shape=partialRectangle;html=1;whiteSpace=wrap;connectable=0;strokeColor=inherit;overflow=hidden;fillColor=none;top=0;left=0;bottom=0;right=0;pointerEvents=1;" vertex="1" parent="I7guThDB0Dkwod5BumiW-33">
          <mxGeometry width="20" height="20" as="geometry">
            <mxRectangle width="20" height="20" as="alternateBounds" />
          </mxGeometry>
        </mxCell>
        <mxCell id="I7guThDB0Dkwod5BumiW-35" value="" style="shape=partialRectangle;html=1;whiteSpace=wrap;connectable=0;strokeColor=inherit;overflow=hidden;fillColor=none;top=0;left=0;bottom=0;right=0;pointerEvents=1;" vertex="1" parent="I7guThDB0Dkwod5BumiW-33">
          <mxGeometry x="20" width="300" height="20" as="geometry">
            <mxRectangle width="300" height="20" as="alternateBounds" />
          </mxGeometry>
        </mxCell>
        <mxCell id="I7guThDB0Dkwod5BumiW-36" value="" style="shape=partialRectangle;html=1;whiteSpace=wrap;connectable=0;strokeColor=inherit;overflow=hidden;fillColor=none;top=0;left=0;bottom=0;right=0;pointerEvents=1;" vertex="1" parent="I7guThDB0Dkwod5BumiW-33">
          <mxGeometry x="320" width="116" height="20" as="geometry">
            <mxRectangle width="116" height="20" as="alternateBounds" />
          </mxGeometry>
        </mxCell>
        <mxCell id="I7guThDB0Dkwod5BumiW-37" value="" style="shape=partialRectangle;html=1;whiteSpace=wrap;connectable=0;strokeColor=inherit;overflow=hidden;fillColor=none;top=0;left=0;bottom=0;right=0;pointerEvents=1;" vertex="1" parent="I7guThDB0Dkwod5BumiW-33">
          <mxGeometry x="436" width="20" height="20" as="geometry">
            <mxRectangle width="20" height="20" as="alternateBounds" />
          </mxGeometry>
        </mxCell>
        <mxCell id="I7guThDB0Dkwod5BumiW-38" value="" style="shape=partialRectangle;html=1;whiteSpace=wrap;connectable=0;strokeColor=inherit;overflow=hidden;fillColor=none;top=0;left=0;bottom=0;right=0;pointerEvents=1;" vertex="1" parent="I7guThDB0Dkwod5BumiW-33">
          <mxGeometry x="456" width="264" height="20" as="geometry">
            <mxRectangle width="264" height="20" as="alternateBounds" />
          </mxGeometry>
        </mxCell>
        <mxCell id="I7guThDB0Dkwod5BumiW-39" value="" style="shape=tableRow;horizontal=0;startSize=0;swimlaneHead=0;swimlaneBody=0;strokeColor=inherit;top=0;left=0;bottom=0;right=0;collapsible=0;dropTarget=0;fillColor=none;points=[[0,0.5],[1,0.5]];portConstraint=eastwest;" vertex="1" parent="I7guThDB0Dkwod5BumiW-32">
          <mxGeometry y="20" width="720" height="126" as="geometry" />
        </mxCell>
        <mxCell id="I7guThDB0Dkwod5BumiW-40" value="" style="shape=partialRectangle;html=1;whiteSpace=wrap;connectable=0;strokeColor=inherit;overflow=hidden;fillColor=none;top=0;left=0;bottom=0;right=0;pointerEvents=1;" vertex="1" parent="I7guThDB0Dkwod5BumiW-39">
          <mxGeometry width="20" height="126" as="geometry">
            <mxRectangle width="20" height="126" as="alternateBounds" />
          </mxGeometry>
        </mxCell>
        <mxCell id="I7guThDB0Dkwod5BumiW-41" value="" style="shape=partialRectangle;html=1;whiteSpace=wrap;connectable=0;strokeColor=inherit;overflow=hidden;fillColor=none;top=0;left=0;bottom=0;right=0;pointerEvents=1;" vertex="1" parent="I7guThDB0Dkwod5BumiW-39">
          <mxGeometry x="20" width="300" height="126" as="geometry">
            <mxRectangle width="300" height="126" as="alternateBounds" />
          </mxGeometry>
        </mxCell>
        <mxCell id="I7guThDB0Dkwod5BumiW-42" value="" style="shape=partialRectangle;html=1;whiteSpace=wrap;connectable=0;strokeColor=inherit;overflow=hidden;fillColor=none;top=0;left=0;bottom=0;right=0;pointerEvents=1;" vertex="1" parent="I7guThDB0Dkwod5BumiW-39">
          <mxGeometry x="320" width="116" height="126" as="geometry">
            <mxRectangle width="116" height="126" as="alternateBounds" />
          </mxGeometry>
        </mxCell>
        <mxCell id="I7guThDB0Dkwod5BumiW-43" value="" style="shape=partialRectangle;html=1;whiteSpace=wrap;connectable=0;strokeColor=inherit;overflow=hidden;fillColor=none;top=0;left=0;bottom=0;right=0;pointerEvents=1;" vertex="1" parent="I7guThDB0Dkwod5BumiW-39">
          <mxGeometry x="436" width="20" height="126" as="geometry">
            <mxRectangle width="20" height="126" as="alternateBounds" />
          </mxGeometry>
        </mxCell>
        <mxCell id="I7guThDB0Dkwod5BumiW-44" value="" style="shape=partialRectangle;html=1;whiteSpace=wrap;connectable=0;strokeColor=inherit;overflow=hidden;fillColor=none;top=0;left=0;bottom=0;right=0;pointerEvents=1;" vertex="1" parent="I7guThDB0Dkwod5BumiW-39">
          <mxGeometry x="456" width="264" height="126" as="geometry">
            <mxRectangle width="264" height="126" as="alternateBounds" />
          </mxGeometry>
        </mxCell>
        <mxCell id="I7guThDB0Dkwod5BumiW-45" value="" style="shape=tableRow;horizontal=0;startSize=0;swimlaneHead=0;swimlaneBody=0;strokeColor=inherit;top=0;left=0;bottom=0;right=0;collapsible=0;dropTarget=0;fillColor=none;points=[[0,0.5],[1,0.5]];portConstraint=eastwest;" vertex="1" parent="I7guThDB0Dkwod5BumiW-32">
          <mxGeometry y="146" width="720" height="126" as="geometry" />
        </mxCell>
        <mxCell id="I7guThDB0Dkwod5BumiW-46" value="" style="shape=partialRectangle;html=1;whiteSpace=wrap;connectable=0;strokeColor=inherit;overflow=hidden;fillColor=none;top=0;left=0;bottom=0;right=0;pointerEvents=1;" vertex="1" parent="I7guThDB0Dkwod5BumiW-45">
          <mxGeometry width="20" height="126" as="geometry">
            <mxRectangle width="20" height="126" as="alternateBounds" />
          </mxGeometry>
        </mxCell>
        <mxCell id="I7guThDB0Dkwod5BumiW-47" value="" style="shape=partialRectangle;html=1;whiteSpace=wrap;connectable=0;strokeColor=inherit;overflow=hidden;fillColor=none;top=0;left=0;bottom=0;right=0;pointerEvents=1;" vertex="1" parent="I7guThDB0Dkwod5BumiW-45">
          <mxGeometry x="20" width="300" height="126" as="geometry">
            <mxRectangle width="300" height="126" as="alternateBounds" />
          </mxGeometry>
        </mxCell>
        <mxCell id="I7guThDB0Dkwod5BumiW-48" value="" style="shape=partialRectangle;html=1;whiteSpace=wrap;connectable=0;strokeColor=inherit;overflow=hidden;fillColor=none;top=0;left=0;bottom=0;right=0;pointerEvents=1;" vertex="1" parent="I7guThDB0Dkwod5BumiW-45">
          <mxGeometry x="320" width="116" height="126" as="geometry">
            <mxRectangle width="116" height="126" as="alternateBounds" />
          </mxGeometry>
        </mxCell>
        <mxCell id="I7guThDB0Dkwod5BumiW-49" value="" style="shape=partialRectangle;html=1;whiteSpace=wrap;connectable=0;strokeColor=inherit;overflow=hidden;fillColor=none;top=0;left=0;bottom=0;right=0;pointerEvents=1;" vertex="1" parent="I7guThDB0Dkwod5BumiW-45">
          <mxGeometry x="436" width="20" height="126" as="geometry">
            <mxRectangle width="20" height="126" as="alternateBounds" />
          </mxGeometry>
        </mxCell>
        <mxCell id="I7guThDB0Dkwod5BumiW-50" value="" style="shape=partialRectangle;html=1;whiteSpace=wrap;connectable=0;strokeColor=inherit;overflow=hidden;fillColor=none;top=0;left=0;bottom=0;right=0;pointerEvents=1;" vertex="1" parent="I7guThDB0Dkwod5BumiW-45">
          <mxGeometry x="456" width="264" height="126" as="geometry">
            <mxRectangle width="264" height="126" as="alternateBounds" />
          </mxGeometry>
        </mxCell>
        <mxCell id="I7guThDB0Dkwod5BumiW-51" value="" style="shape=tableRow;horizontal=0;startSize=0;swimlaneHead=0;swimlaneBody=0;strokeColor=inherit;top=0;left=0;bottom=0;right=0;collapsible=0;dropTarget=0;fillColor=none;points=[[0,0.5],[1,0.5]];portConstraint=eastwest;" vertex="1" parent="I7guThDB0Dkwod5BumiW-32">
          <mxGeometry y="272" width="720" height="126" as="geometry" />
        </mxCell>
        <mxCell id="I7guThDB0Dkwod5BumiW-52" value="" style="shape=partialRectangle;html=1;whiteSpace=wrap;connectable=0;strokeColor=inherit;overflow=hidden;fillColor=none;top=0;left=0;bottom=0;right=0;pointerEvents=1;" vertex="1" parent="I7guThDB0Dkwod5BumiW-51">
          <mxGeometry width="20" height="126" as="geometry">
            <mxRectangle width="20" height="126" as="alternateBounds" />
          </mxGeometry>
        </mxCell>
        <mxCell id="I7guThDB0Dkwod5BumiW-53" value="" style="shape=partialRectangle;html=1;whiteSpace=wrap;connectable=0;strokeColor=inherit;overflow=hidden;fillColor=none;top=0;left=0;bottom=0;right=0;pointerEvents=1;" vertex="1" parent="I7guThDB0Dkwod5BumiW-51">
          <mxGeometry x="20" width="300" height="126" as="geometry">
            <mxRectangle width="300" height="126" as="alternateBounds" />
          </mxGeometry>
        </mxCell>
        <mxCell id="I7guThDB0Dkwod5BumiW-54" value="" style="shape=partialRectangle;html=1;whiteSpace=wrap;connectable=0;strokeColor=inherit;overflow=hidden;fillColor=none;top=0;left=0;bottom=0;right=0;pointerEvents=1;" vertex="1" parent="I7guThDB0Dkwod5BumiW-51">
          <mxGeometry x="320" width="116" height="126" as="geometry">
            <mxRectangle width="116" height="126" as="alternateBounds" />
          </mxGeometry>
        </mxCell>
        <mxCell id="I7guThDB0Dkwod5BumiW-55" value="" style="shape=partialRectangle;html=1;whiteSpace=wrap;connectable=0;strokeColor=inherit;overflow=hidden;fillColor=none;top=0;left=0;bottom=0;right=0;pointerEvents=1;" vertex="1" parent="I7guThDB0Dkwod5BumiW-51">
          <mxGeometry x="436" width="20" height="126" as="geometry">
            <mxRectangle width="20" height="126" as="alternateBounds" />
          </mxGeometry>
        </mxCell>
        <mxCell id="I7guThDB0Dkwod5BumiW-56" value="" style="shape=partialRectangle;html=1;whiteSpace=wrap;connectable=0;strokeColor=inherit;overflow=hidden;fillColor=none;top=0;left=0;bottom=0;right=0;pointerEvents=1;" vertex="1" parent="I7guThDB0Dkwod5BumiW-51">
          <mxGeometry x="456" width="264" height="126" as="geometry">
            <mxRectangle width="264" height="126" as="alternateBounds" />
          </mxGeometry>
        </mxCell>
      </root>
    </mxGraphModel>
  </diagram>
</mxfile>
